<svg width="301" height="36" viewBox="0 0 301 36" fill="none" xmlns="http://www.w3.org/2000/svg">
<path d="M4.6155 30.0202L4.64694 30.0517L6.77234 27.9263L4.31996 25.4739L7.30054 22.4933L9.75292 24.9457L7.57093 32.9756L10.6018 36.0002L17.8269 28.7752L15.6638 26.6057L11.2432 31.0263L13.1359 24.0842L7.23137 18.1733L0 25.4047L4.6155 30.0202Z" fill="white"/>
<path d="M20.6818 12.4638L15.2614 17.8842L13.6139 16.2367L19.0343 10.8163L16.8083 8.59033L8.87891 16.5197L19.4807 27.1215L27.4101 19.1921L20.6818 12.4638ZM23.1907 19.2173L19.9335 22.4746L17.2107 19.7518L20.468 16.4945L23.1907 19.2173Z" fill="white"/>
<path d="M24.0399 4.98021L27.2092 1.8047L25.4045 0L18.4058 6.99871L20.2042 8.79712L23.3105 5.69706L22.8326 11.4319L24.7442 13.3372L25.2724 6.87295L31.5857 6.18125L29.8062 4.4017L24.0399 4.98021Z" fill="white"/>
<path d="M24.8256 13.4263L26.6429 15.2435L28.7557 14.3066L31.4282 16.9791L30.4661 19.073L32.3022 20.9092L36.3769 10.9865L34.7923 9.40186L24.8193 13.4326L24.8256 13.4263ZM30.661 13.4388L33.585 12.1498L32.2959 15.0738L30.661 13.4388Z" fill="white"/>
<path d="M34.1633 19.607L32.585 21.1853L40.2125 28.8128L41.7908 27.2345L41.1054 26.5491L44.2369 18.8335L42.6397 17.2363L34.899 20.3364L34.1696 19.607H34.1633ZM41.4701 19.9465L39.3007 24.7507L36.666 22.1159L41.4701 19.9465Z" fill="white"/>
<path d="M40.8223 29.4226L42.5138 31.1141L44.5323 29.0956L48.192 32.7553L53.1722 27.7751L47.8273 22.4302L40.8286 29.4289H40.8223V29.4226ZM46.0351 27.6179L48.1228 25.5302L50.3174 27.7248L48.2297 29.8125L46.0351 27.6179Z" fill="white"/>
<path d="M76.9004 8.2002H79.5604L71.8324 27.8002H69.1724L76.9004 8.2002Z" fill="white"/>
<path d="M98.6405 29.5921H95.5605V9.99208H105.277V29.5921H102.141V12.7921H98.6405V29.5921Z" fill="white"/>
<path d="M117.45 29.5921H114.342L113.81 26.0361H110.03L109.498 29.5921H106.67L109.806 9.99208H114.314L117.45 29.5921ZM110.422 23.3761H113.39L111.906 13.4641L110.422 23.3761Z" fill="white"/>
<path d="M123.393 9.99208C124.943 9.99208 126.091 10.4027 126.837 11.2241C127.603 12.0454 127.985 13.2494 127.985 14.8361V17.3841C127.985 18.9707 127.603 20.1747 126.837 20.9961C126.091 21.8174 124.943 22.2281 123.393 22.2281H121.937V29.5921H118.857V9.99208H123.393ZM121.937 12.7921V19.4281H123.393C123.879 19.4281 124.252 19.2974 124.513 19.0361C124.775 18.7747 124.905 18.2894 124.905 17.5801V14.6401C124.905 13.9307 124.775 13.4454 124.513 13.1841C124.252 12.9227 123.879 12.7921 123.393 12.7921H121.937Z" fill="white"/>
<path d="M128.545 9.99208H138.065V12.7921H134.845V29.5921H131.765V12.7921H128.545V9.99208Z" fill="white"/>
<path d="M142.555 29.5921H139.475V9.99208H142.555V18.3921H146.055V9.99208H149.191V29.5921H146.055V21.1921H142.555V29.5921Z" fill="white"/>
<path d="M154.504 18.2521H158.732V21.0521H154.504V26.7921H159.824V29.5921H151.424V9.99208H159.824V12.7921H154.504V18.2521ZM154.784 6.18408V9.04008H151.928V6.18408H154.784ZM159.264 6.18408V9.04008H156.408V6.18408H159.264Z" fill="white"/>
<path d="M166.186 9.99208C167.736 9.99208 168.884 10.4027 169.63 11.2241C170.396 12.0454 170.778 13.2494 170.778 14.8361V17.3841C170.778 18.9707 170.396 20.1747 169.63 20.9961C168.884 21.8174 167.736 22.2281 166.186 22.2281H164.73V29.5921H161.65V9.99208H166.186ZM164.73 12.7921V19.4281H166.186C166.672 19.4281 167.045 19.2974 167.306 19.0361C167.568 18.7747 167.698 18.2894 167.698 17.5801V14.6401C167.698 13.9307 167.568 13.4454 167.306 13.1841C167.045 12.9227 166.672 12.7921 166.186 12.7921H164.73Z" fill="white"/>
<path d="M181.082 22.2841V24.8881C181.082 26.4747 180.69 27.6974 179.906 28.5561C179.14 29.3961 178.002 29.8161 176.49 29.8161C174.978 29.8161 173.83 29.3961 173.046 28.5561C172.28 27.6974 171.898 26.4747 171.898 24.8881V14.6961C171.898 13.1094 172.28 11.8961 173.046 11.0561C173.83 10.1974 174.978 9.76808 176.49 9.76808C178.002 9.76808 179.14 10.1974 179.906 11.0561C180.69 11.8961 181.082 13.1094 181.082 14.6961V16.6001H178.17V14.5001C178.17 13.7907 178.02 13.2961 177.722 13.0161C177.442 12.7174 177.059 12.5681 176.574 12.5681C176.088 12.5681 175.696 12.7174 175.398 13.0161C175.118 13.2961 174.978 13.7907 174.978 14.5001V25.0841C174.978 25.7934 175.118 26.2881 175.398 26.5681C175.696 26.8481 176.088 26.9881 176.574 26.9881C177.059 26.9881 177.442 26.8481 177.722 26.5681C178.02 26.2881 178.17 25.7934 178.17 25.0841V22.2841H181.082Z" fill="white"/>
<path d="M187.065 21.7801L186.113 23.5721V29.5921H183.033V9.99208H186.113V18.5321L190.201 9.99208H193.225L188.941 18.7281L193.225 29.5921H190.061L187.065 21.7801Z" fill="white"/>
<path d="M197.791 29.5921H194.627V9.99208H197.371V21.7241L200.535 9.99208H204.399V29.5921H201.627V15.3961L197.791 29.5921Z" fill="white"/>
<path d="M209.711 18.2521H213.939V21.0521H209.711V26.7921H215.031V29.5921H206.631V9.99208H215.031V12.7921H209.711V18.2521Z" fill="white"/>
<path d="M224.285 29.5921H221.205V9.99208H230.921V29.5921H227.785V12.7921H224.285V29.5921Z" fill="white"/>
<path d="M237.69 9.99208C239.24 9.99208 240.388 10.4027 241.134 11.2241C241.9 12.0454 242.282 13.2494 242.282 14.8361V17.3841C242.282 18.9707 241.9 20.1747 241.134 20.9961C240.388 21.8174 239.24 22.2281 237.69 22.2281H236.234V29.5921H233.154V9.99208H237.69ZM236.234 12.7921V19.4281H237.69C238.176 19.4281 238.549 19.2974 238.81 19.0361C239.072 18.7747 239.202 18.2894 239.202 17.5801V14.6401C239.202 13.9307 239.072 13.4454 238.81 13.1841C238.549 12.9227 238.176 12.7921 237.69 12.7921H236.234Z" fill="white"/>
<path d="M246.482 25.0841C246.482 25.7934 246.622 26.2974 246.902 26.5961C247.2 26.8761 247.592 27.0161 248.078 27.0161C248.563 27.0161 248.946 26.8761 249.226 26.5961C249.524 26.2974 249.674 25.7934 249.674 25.0841V14.5001C249.674 13.7907 249.524 13.2961 249.226 13.0161C248.946 12.7174 248.563 12.5681 248.078 12.5681C247.592 12.5681 247.2 12.7174 246.902 13.0161C246.622 13.2961 246.482 13.7907 246.482 14.5001V25.0841ZM243.402 14.6961C243.402 13.1094 243.803 11.8961 244.606 11.0561C245.408 10.1974 246.566 9.76808 248.078 9.76808C249.59 9.76808 250.747 10.1974 251.55 11.0561C252.352 11.8961 252.754 13.1094 252.754 14.6961V24.8881C252.754 26.4747 252.352 27.6974 251.55 28.5561C250.747 29.3961 249.59 29.8161 248.078 29.8161C246.566 29.8161 245.408 29.3961 244.606 28.5561C243.803 27.6974 243.402 26.4747 243.402 24.8881V14.6961Z" fill="white"/>
<path d="M257.781 18.2521H262.009V21.0521H257.781V26.7921H263.101V29.5921H254.701V9.99208H263.101V12.7921H257.781V18.2521Z" fill="white"/>
<path d="M268.96 21.7801L268.008 23.5721V29.5921H264.928V9.99208H268.008V18.5321L272.096 9.99208H275.12L270.836 18.7281L275.12 29.5921H271.956L268.96 21.7801Z" fill="white"/>
<path d="M275.681 9.99208H285.201V12.7921H281.981V29.5921H278.901V12.7921H275.681V9.99208Z" fill="white"/>
<path d="M291.147 26.7921C291.633 26.7921 292.006 26.6614 292.267 26.4001C292.529 26.1387 292.659 25.6534 292.659 24.9441V22.0041C292.659 21.2947 292.529 20.8094 292.267 20.5481C292.006 20.2867 291.633 20.1561 291.147 20.1561H289.691V26.7921H291.147ZM286.611 29.5921V9.99208H289.691V17.3561H291.147C292.697 17.3561 293.845 17.7667 294.591 18.5881C295.357 19.4094 295.739 20.6134 295.739 22.2001V24.7481C295.739 26.3347 295.357 27.5387 294.591 28.3601C293.845 29.1814 292.697 29.5921 291.147 29.5921H286.611ZM297.251 9.99208H300.331V29.5921H297.251V9.99208Z" fill="white"/>
</svg>
